# xmcd
#
# Track frame offsets:
#	150
#	16165
#	31336
#	52035
#	60527
#	81107
#	100970
#	118064
#	136638
#	158078
#	177827
#	198691
#
# Disc length: 2917 seconds
#
# Revision: 0
# Processed by: cddbd v1.4PL0 Copyright (c) Steve Scherf et al.
# Submitted via: dBpowerAMP V4.0
#
DISCID=980b630c
DTITLE=Ilse De Lange - Clean Up
DYEAR=2003
DGENRE=Country
TTITLE0=All Alone
TTITLE1=Thank You
TTITLE2=Deja Vu
TTITLE3=New Beginning
TTITLE4=Heavenless
TTITLE5=Follow
TTITLE6=Clean Up
TTITLE7=Machine People
TTITLE8=Not Waiting For You
TTITLE9=No Reason To Be Shy
TTITLE10=Nobody Really Knows
TTITLE11=Here I Am
EXTD=
EXTT0=
EXTT1=
EXTT2=
EXTT3=
EXTT4=
EXTT5=
EXTT6=
EXTT7=
EXTT8=
EXTT9=
EXTT10=
EXTT11=
PLAYORDER=
